<svg xmlns="http://www.w3.org/2000/svg" xmlns:xlink="http://www.w3.org/1999/xlink" xmlns:lucid="lucid" width="1360" height="1345.56"><g transform="translate(280 -186.44444444444446)" lucid:page-tab-id="0_0"><path d="M-260 400.67h360v60h-360z" fill="none"/><use xlink:href="#a" transform="matrix(1,0,0,1,-260,400.66666666666663) translate(2.0679012345678984 21.111111111111114)"/><use xlink:href="#b" transform="matrix(1,0,0,1,-260,400.66666666666663) translate(55.154320987654316 21.111111111111114)"/><use xlink:href="#c" transform="matrix(1,0,0,1,-260,400.66666666666663) translate(79.84567901234567 21.111111111111114)"/><use xlink:href="#d" transform="matrix(1,0,0,1,-260,400.66666666666663) translate(193.30246913580248 21.111111111111114)"/><use xlink:href="#e" transform="matrix(1,0,0,1,-260,400.66666666666663) translate(212.43827160493828 21.111111111111114)"/><use xlink:href="#f" transform="matrix(1,0,0,1,-260,400.66666666666663) translate(345.58641975308643 21.111111111111114)"/><use xlink:href="#g" transform="matrix(1,0,0,1,-260,400.66666666666663) translate(150.40123456790124 47.777777777777786)"/><path d="M241.77 206.44h240v60h-240z" fill="none"/><use xlink:href="#h" transform="matrix(1,0,0,1,241.77333333333308,206.44444444444446) translate(66.35802469135803 34.44444444444444)"/><path d="M721.77 600h240v60h-240z" fill="none"/><use xlink:href="#i" transform="matrix(1,0,0,1,721.7733333333331,600) translate(79.90740740740742 34.44444444444444)"/><path d="M160 400h80v60.67h-80zM240 400h80v60.67h-80zM320 400h80v60.67h-80zM400 400h80v60.67h-80zM480 400h80v60.67h-80zM560 400h80v60.67h-80zM640 400h80v60.67h-80zM720 400h80v60.67h-80zM800 400h80v60.67h-80zM880 400h80v60.67h-80z" fill="#f2f3f5"/><path d="M160 400v60.67M240 400v60.67M320 400v60.67M400 400v60.67M480 400v60.67M560 400v60.67M640 400v60.67M720 400v60.67M800 400v60.67M880 400v60.67M960 400v60.67M160 400h80M160 460.67h80M240 400h80M240 460.67h80M320 400h80M320 460.67h80M400 400h80M400 460.67h80M480 400h80M480 460.67h80M560 400h80M560 460.67h80M640 400h80M640 460.67h80M720 400h80M720 460.67h80M800 400h80M800 460.67h80M880 400h80M880 460.67h80" stroke="#3a414a" fill="none"/><use xlink:href="#j" transform="matrix(1,0,0,1,165,405) translate(26.790123456790127 33.94444444444444)"/><use xlink:href="#k" transform="matrix(1,0,0,1,245,405) translate(26.790123456790127 33.94444444444444)"/><use xlink:href="#l" transform="matrix(1,0,0,1,325,405) translate(29.546296296296298 33.94444444444444)"/><use xlink:href="#j" transform="matrix(1,0,0,1,405,405) translate(26.790123456790127 33.94444444444444)"/><use xlink:href="#j" transform="matrix(1,0,0,1,485,405) translate(26.790123456790127 33.94444444444444)"/><use xlink:href="#j" transform="matrix(1,0,0,1,565,405) translate(26.790123456790127 33.94444444444444)"/><use xlink:href="#j" transform="matrix(1,0,0,1,645,405) translate(26.790123456790127 33.94444444444444)"/><use xlink:href="#l" transform="matrix(1,0,0,1,725,405) translate(29.546296296296298 33.94444444444444)"/><use xlink:href="#j" transform="matrix(1,0,0,1,805,405) translate(26.790123456790127 33.94444444444444)"/><use xlink:href="#j" transform="matrix(1,0,0,1,885,405) translate(26.790123456790127 33.94444444444444)"/><path d="M276 591.33a6 6 0 0 1-6-6V483.67a5 5 0 0 0-5-5 1.92 1.92 0 0 1-1.28-3.35l11.82-10.64a6.67 6.67 0 0 1 8.92 0l11.82 10.64a1.92 1.92 0 0 1-1.28 3.35 5 5 0 0 0-5 5v101.66a6 6 0 0 1-6 6zM836 591.33a6 6 0 0 1-6-6V483.67a5 5 0 0 0-5-5 1.92 1.92 0 0 1-1.28-3.35l11.82-10.64a6.67 6.67 0 0 1 8.92 0l11.82 10.64a1.92 1.92 0 0 1-1.28 3.35 5 5 0 0 0-5 5v101.66a6 6 0 0 1-6 6z" stroke="#3a414a" fill="#fff"/><path d="M160 600h240v60H160z" fill="none"/><use xlink:href="#m" transform="matrix(1,0,0,1,160,600) translate(79.90740740740742 34.44444444444444)"/><path d="M364 269.33a6 6 0 0 1 6 6V377a5 5 0 0 0 5 5 1.92 1.92 0 0 1 1.28 3.34L364.46 396a6.67 6.67 0 0 1-8.92 0l-11.82-10.66A1.92 1.92 0 0 1 345 382a5 5 0 0 0 5-5V275.33a6 6 0 0 1 6-6zM764 269.33a6 6 0 0 1 6 6V377a5 5 0 0 0 5 5 1.92 1.92 0 0 1 1.28 3.34L764.46 396a6.67 6.67 0 0 1-8.92 0l-11.82-10.66A1.92 1.92 0 0 1 745 382a5 5 0 0 0 5-5V275.33a6 6 0 0 1 6-6z" stroke="#3a414a" fill="#fff"/><path d="M640 209.33h240v60H640z" fill="none"/><use xlink:href="#n" transform="matrix(1,0,0,1,640,209.33333333333343) translate(59.59876543209876 34.44444444444444)"/><path d="M161.77 920h80v60.67h-80z" fill="#f2f3f5"/><path d="M241.77 920h80v60.67h-80zM321.77 920h80v60.67h-80zM401.77 920h80v60.67h-80zM481.77 920h80v60.67h-80zM561.77 920h80v60.67h-80zM641.77 920h80v60.67h-80zM721.77 920h80v60.67h-80zM801.77 920h80v60.67h-80zM881.77 920h80v60.67h-80z" fill="#f2f3f5"/><path d="M161.77 920v60.67M241.77 920v60.67M321.77 920v60.67M401.77 920v60.67M481.77 920v60.67M561.77 920v60.67M641.77 920v60.67M721.77 920v60.67M801.77 920v60.67M881.77 920v60.67M961.77 920v60.67M161.77 920h80M161.77 980.67h80M241.77 920h80M241.77 980.67h80M321.77 920h80M321.77 980.67h80M401.77 920h80M401.77 980.67h80M481.77 920h80M481.77 980.67h80M561.77 920h80M561.77 980.67h80M641.77 920h80M641.77 980.67h80M721.77 920h80M721.77 980.67h80M801.77 920h80M801.77 980.67h80M881.77 920h80M881.77 980.67h80" stroke="#3a414a" fill="none"/><use xlink:href="#j" transform="matrix(1,0,0,1,166.77333333333308,925) translate(26.790123456790127 33.94444444444444)"/><use xlink:href="#k" transform="matrix(1,0,0,1,246.77333333333308,925) translate(26.790123456790127 33.94444444444444)"/><use xlink:href="#l" transform="matrix(1,0,0,1,326.7733333333331,925) translate(29.546296296296298 33.94444444444444)"/><use xlink:href="#j" transform="matrix(1,0,0,1,406.7733333333331,925) translate(26.790123456790127 33.94444444444444)"/><use xlink:href="#j" transform="matrix(1,0,0,1,486.7733333333331,925) translate(26.790123456790127 33.94444444444444)"/><use xlink:href="#j" transform="matrix(1,0,0,1,566.7733333333331,925) translate(26.790123456790127 33.94444444444444)"/><use xlink:href="#j" transform="matrix(1,0,0,1,646.7733333333331,925) translate(26.790123456790127 33.94444444444444)"/><use xlink:href="#l" transform="matrix(1,0,0,1,726.7733333333331,925) translate(29.546296296296298 33.94444444444444)"/><use xlink:href="#j" transform="matrix(1,0,0,1,806.7733333333331,925) translate(26.790123456790127 33.94444444444444)"/><use xlink:href="#j" transform="matrix(1,0,0,1,886.7733333333331,925) translate(26.790123456790127 33.94444444444444)"/><path d="M436 1111.33a6 6 0 0 1-6-6v-101.66a5 5 0 0 0-5-5 1.92 1.92 0 0 1-1.28-3.35l11.82-10.64a6.67 6.67 0 0 1 8.92 0l11.82 10.64a1.92 1.92 0 0 1-1.28 3.35 5 5 0 0 0-5 5v101.66a6 6 0 0 1-6 6zM596 1111.33a6 6 0 0 1-6-6V1003a5 5 0 0 0-5-5 1.92 1.92 0 0 1-1.28-3.34L595.54 984a6.67 6.67 0 0 1 8.92 0l11.82 10.66A1.92 1.92 0 0 1 615 998a5 5 0 0 0-5 5v102.33a6 6 0 0 1-6 6z" stroke="#3a414a" fill="#fff"/><path d="M320 1120h240v60H320z" fill="none"/><use xlink:href="#m" transform="matrix(1,0,0,1,320,1120) translate(79.90740740740742 34.44444444444444)"/><path d="M481.77 1120h240v60h-240z" fill="none"/><use xlink:href="#i" transform="matrix(1,0,0,1,481.7733333333331,1120) translate(79.90740740740742 34.44444444444444)"/><path d="M764 789.33a6 6 0 0 1 6 6V897a5 5 0 0 0 5 5 1.92 1.92 0 0 1 1.28 3.34L764.46 916a6.67 6.67 0 0 1-8.92 0l-11.82-10.66A1.92 1.92 0 0 1 745 902a5 5 0 0 0 5-5V795.33a6 6 0 0 1 6-6zM364 789.33a6 6 0 0 1 6 6V897a5 5 0 0 0 5 5 1.92 1.92 0 0 1 1.28 3.34L364.46 916a6.67 6.67 0 0 1-8.92 0l-11.82-10.66A1.92 1.92 0 0 1 345 902a5 5 0 0 0 5-5V795.33a6 6 0 0 1 6-6z" stroke="#3a414a" fill="#fff"/><path d="M640 740h240v60H640z" fill="none"/><use xlink:href="#h" transform="matrix(1,0,0,1,640,740) translate(66.35802469135803 34.44444444444444)"/><path d="M240 740h240v60H240z" fill="none"/><use xlink:href="#n" transform="matrix(1,0,0,1,240.00000000000003,740) translate(59.59876543209876 34.44444444444444)"/><path d="M-240 920h360v60h-360z" fill="none"/><use xlink:href="#a" transform="matrix(1,0,0,1,-240,920) translate(2.6851851851851904 21.111111111111114)"/><use xlink:href="#o" transform="matrix(1,0,0,1,-240,920) translate(55.77160493827161 21.111111111111114)"/><use xlink:href="#c" transform="matrix(1,0,0,1,-240,920) translate(80.46296296296296 21.111111111111114)"/><use xlink:href="#p" transform="matrix(1,0,0,1,-240,920) translate(193.91975308641977 21.111111111111114)"/><use xlink:href="#q" transform="matrix(1,0,0,1,-240,920) translate(213.05555555555557 21.111111111111114)"/><use xlink:href="#r" transform="matrix(1,0,0,1,-240,920) translate(344.96913580246917 21.111111111111114)"/><use xlink:href="#g" transform="matrix(1,0,0,1,-240,920) translate(150.40123456790124 47.777777777777786)"/><path d="M269.03 527.02H126a6 6 0 0 1-6-6V334a6 6 0 0 1 6-6h207.08" stroke="#3a414a" fill="none"/><path d="M269.53 527.52h-.5v-1h.5z" stroke="#3a414a" stroke-width=".05" fill="#3a414a"/><path d="M347.85 328l-14.27 4.64v-9.27z" stroke="#3a414a" fill="#3a414a"/><path d="M851.04 527.02H994a6 6 0 0 0 6-6V334a6 6 0 0 0-6-6H786.85" stroke="#3a414a" fill="none"/><path d="M851.05 527.52h-.52v-1h.52z" stroke="#3a414a" stroke-width=".05" fill="#3a414a"/><path d="M772.08 328l14.27-4.63v9.27z" stroke="#3a414a" fill="#3a414a"/><path d="M600 981.3V853.12a6 6 0 0 0-6-6H386.85" stroke="#3a414a" fill="none"/><path d="M600.5 981.84l-.5-.04-.5.04v-.55h1z" stroke="#3a414a" stroke-width=".05" fill="#3a414a"/><path d="M372.08 847.12l14.27-4.64v9.27z" stroke="#3a414a" fill="#3a414a"/><path d="M440 981.97V853.12a6 6 0 0 1 6-6h287.08" stroke="#3a414a" fill="none"/><path d="M440.5 982.5l-.5-.03-.5.03v-.55h1z" stroke="#3a414a" stroke-width=".05" fill="#3a414a"/><path d="M747.85 847.12l-14.27 4.63v-9.27z" stroke="#3a414a" fill="#3a414a"/><path d="M-240 1261.33h360v60h-360z" fill="none"/><use xlink:href="#a" transform="matrix(1,0,0,1,-240,1261.3333333333335) translate(61.88271604938271 21.111111111111114)"/><use xlink:href="#s" transform="matrix(1,0,0,1,-240,1261.3333333333335) translate(114.96913580246913 21.111111111111114)"/><use xlink:href="#c" transform="matrix(1,0,0,1,-240,1261.3333333333335) translate(139.66049382716048 21.111111111111114)"/><use xlink:href="#t" transform="matrix(1,0,0,1,-240,1261.3333333333335) translate(253.1172839506173 21.111111111111114)"/><use xlink:href="#u" transform="matrix(1,0,0,1,-240,1261.3333333333335) translate(272.2530864197531 21.111111111111114)"/><use xlink:href="#v" transform="matrix(1,0,0,1,-240,1261.3333333333335) translate(94.01234567901234 47.777777777777786)"/><use xlink:href="#w" transform="matrix(1,0,0,1,-240,1261.3333333333335) translate(220.98765432098764 47.777777777777786)"/><use xlink:href="#x" transform="matrix(1,0,0,1,-240,1261.3333333333335) translate(246.2962962962963 47.777777777777786)"/><path d="M161.77 1260h80v60.67h-80z" fill="#f2f3f5"/><path d="M241.77 1260h80v60.67h-80zM321.77 1260h80v60.67h-80zM401.77 1260h80v60.67h-80zM481.77 1260h80v60.67h-80zM561.77 1260h80v60.67h-80zM641.77 1260h80v60.67h-80zM721.77 1260h80v60.67h-80zM801.77 1260h80v60.67h-80zM881.77 1260h80v60.67h-80z" fill="#f2f3f5"/><path d="M161.77 1260v60.67M241.77 1260v60.67M321.77 1260v60.67M401.77 1260v60.67M481.77 1260v60.67M561.77 1260v60.67M641.77 1260v60.67M721.77 1260v60.67M801.77 1260v60.67M881.77 1260v60.67M961.77 1260v60.67M161.77 1260h80M161.77 1320.67h80M241.77 1260h80M241.77 1320.67h80M321.77 1260h80M321.77 1320.67h80M401.77 1260h80M401.77 1320.67h80M481.77 1260h80M481.77 1320.67h80M561.77 1260h80M561.77 1320.67h80M641.77 1260h80M641.77 1320.67h80M721.77 1260h80M721.77 1320.67h80M801.77 1260h80M801.77 1320.67h80M881.77 1260h80M881.77 1320.67h80" stroke="#3a414a" fill="none"/><g><use xlink:href="#j" transform="matrix(1,0,0,1,166.77333333333308,1265) translate(26.790123456790127 33.94444444444444)"/></g><g><use xlink:href="#k" transform="matrix(1,0,0,1,246.77333333333308,1265) translate(26.790123456790127 33.94444444444444)"/></g><g><use xlink:href="#l" transform="matrix(1,0,0,1,326.7733333333331,1265) translate(29.546296296296298 33.94444444444444)"/></g><g><use xlink:href="#j" transform="matrix(1,0,0,1,406.7733333333331,1265) translate(26.790123456790127 33.94444444444444)"/></g><g><use xlink:href="#j" transform="matrix(1,0,0,1,486.7733333333331,1265) translate(26.790123456790127 33.94444444444444)"/></g><g><use xlink:href="#j" transform="matrix(1,0,0,1,566.7733333333331,1265) translate(26.790123456790127 33.94444444444444)"/></g><g><use xlink:href="#j" transform="matrix(1,0,0,1,646.7733333333331,1265) translate(26.790123456790127 33.94444444444444)"/></g><g><use xlink:href="#l" transform="matrix(1,0,0,1,726.7733333333331,1265) translate(29.546296296296298 33.94444444444444)"/></g><g><use xlink:href="#j" transform="matrix(1,0,0,1,806.7733333333331,1265) translate(26.790123456790127 33.94444444444444)"/></g><g><use xlink:href="#j" transform="matrix(1,0,0,1,886.7733333333331,1265) translate(26.790123456790127 33.94444444444444)"/></g><g><path d="M836 1452a6 6 0 0 1-6-6v-101.67a5 5 0 0 0-5-5 1.92 1.92 0 0 1-1.28-3.34l11.82-10.65a6.67 6.67 0 0 1 8.92 0l11.82 10.64a1.92 1.92 0 0 1-1.28 3.33 5 5 0 0 0-5 5V1446a6 6 0 0 1-6 6z" stroke="#3a414a" fill="#fff"/></g><g><path d="M916 1452a6 6 0 0 1-6-6v-102.33a5 5 0 0 0-5-5 1.92 1.92 0 0 1-1.28-3.35l11.82-10.64a6.67 6.67 0 0 1 8.92 0l11.82 10.64a1.92 1.92 0 0 1-1.28 3.35 5 5 0 0 0-5 5V1446a6 6 0 0 1-6 6z" stroke="#3a414a" fill="#fff"/></g><path d="M700 1452h240v60H700z" fill="none"/><g><use xlink:href="#m" transform="matrix(1,0,0,1,700,1452.0000000000002) translate(79.90740740740742 34.44444444444444)"/></g><path d="M820 1452h240v60H820z" fill="none"/><g><use xlink:href="#i" transform="matrix(1,0,0,1,820,1452.0000000000002) translate(79.90740740740742 34.44444444444444)"/></g><defs><path fill="#3a414a" d="M96-169c-40 0-48 33-48 73s9 75 48 75c24 0 41-14 43-38l32 2c-6 37-31 61-74 61-59 0-76-41-82-99-10-93 101-131 147-64 4 7 5 14 7 22l-32 3c-4-21-16-35-41-35" id="y"/><path fill="#3a414a" d="M141-36C126-15 110 5 73 4 37 3 15-17 15-53c-1-64 63-63 125-63 3-35-9-54-41-54-24 1-41 7-42 31l-33-3c5-37 33-52 76-52 45 0 72 20 72 64v82c-1 20 7 32 28 27v20c-31 9-61-2-59-35zM48-53c0 20 12 33 32 33 41-3 63-29 60-74-43 2-92-5-92 41" id="z"/><path fill="#3a414a" d="M135-143c-3-34-86-38-87 0 15 53 115 12 119 90S17 21 10-45l28-5c4 36 97 45 98 0-10-56-113-15-118-90-4-57 82-63 122-42 12 7 21 19 24 35" id="A"/><path fill="#3a414a" d="M100-194c63 0 86 42 84 106H49c0 40 14 67 53 68 26 1 43-12 49-29l28 8c-11 28-37 45-77 45C44 4 14-33 15-96c1-61 26-98 85-98zm52 81c6-60-76-77-97-28-3 7-6 17-6 28h103" id="B"/><g id="a"><use transform="matrix(0.06172839506172839,0,0,0.06172839506172839,0,0)" xlink:href="#y"/><use transform="matrix(0.06172839506172839,0,0,0.06172839506172839,11.11111111111111,0)" xlink:href="#z"/><use transform="matrix(0.06172839506172839,0,0,0.06172839506172839,23.45679012345679,0)" xlink:href="#A"/><use transform="matrix(0.06172839506172839,0,0,0.06172839506172839,34.5679012345679,0)" xlink:href="#B"/></g><path fill="#3a414a" d="M27 0v-27h64v-190l-56 39v-29l58-41h29v221h61V0H27" id="C"/><path fill="#3a414a" d="M33-154v-36h34v36H33zM33 0v-36h34V0H33" id="D"/><g id="b"><use transform="matrix(0.06172839506172839,0,0,0.06172839506172839,0,0)" xlink:href="#C"/><use transform="matrix(0.06172839506172839,0,0,0.06172839506172839,12.345679012345679,0)" xlink:href="#D"/></g><path fill="#3a414a" d="M24 0v-261h32V0H24" id="E"/><path fill="#3a414a" d="M101-234c-31-9-42 10-38 44h38v23H63V0H32v-167H5v-23h27c-7-52 17-82 69-68v24" id="F"/><path fill="#3a414a" d="M59-47c-2 24 18 29 38 22v24C64 9 27 4 27-40v-127H5v-23h24l9-43h21v43h35v23H59v120" id="G"/><path fill="#3a414a" d="M-5 72V49h209v23H-5" id="H"/><path fill="#3a414a" d="M117-194c89-4 53 116 60 194h-32v-121c0-31-8-49-39-48C34-167 62-67 57 0H25l-1-190h30c1 10-1 24 2 32 11-22 29-35 61-36" id="I"/><path fill="#3a414a" d="M85-194c31 0 48 13 60 33l-1-100h32l1 261h-30c-2-10 0-23-3-31C134-8 116 4 85 4 32 4 16-35 15-94c0-66 23-100 70-100zm9 24c-40 0-46 34-46 75 0 40 6 74 45 74 42 0 51-32 51-76 0-42-9-74-50-73" id="J"/><g id="c"><use transform="matrix(0.06172839506172839,0,0,0.06172839506172839,0,0)" xlink:href="#E"/><use transform="matrix(0.06172839506172839,0,0,0.06172839506172839,4.876543209876543,0)" xlink:href="#B"/><use transform="matrix(0.06172839506172839,0,0,0.06172839506172839,17.22222222222222,0)" xlink:href="#F"/><use transform="matrix(0.06172839506172839,0,0,0.06172839506172839,23.39506172839506,0)" xlink:href="#G"/><use transform="matrix(0.06172839506172839,0,0,0.06172839506172839,29.5679012345679,0)" xlink:href="#H"/><use transform="matrix(0.06172839506172839,0,0,0.06172839506172839,41.913580246913575,0)" xlink:href="#y"/><use transform="matrix(0.06172839506172839,0,0,0.06172839506172839,53.02469135802468,0)" xlink:href="#z"/><use transform="matrix(0.06172839506172839,0,0,0.06172839506172839,65.37037037037037,0)" xlink:href="#I"/><use transform="matrix(0.06172839506172839,0,0,0.06172839506172839,77.71604938271605,0)" xlink:href="#J"/><use transform="matrix(0.06172839506172839,0,0,0.06172839506172839,90.06172839506173,0)" xlink:href="#E"/><use transform="matrix(0.06172839506172839,0,0,0.06172839506172839,94.93827160493828,0)" xlink:href="#B"/></g><path fill="#3a414a" d="M18-100v-36l175-74v27L42-118l151 64v27" id="K"/><use transform="matrix(0.06172839506172839,0,0,0.06172839506172839,0,0)" xlink:href="#K" id="d"/><path fill="#3a414a" d="M114-163C36-179 61-72 57 0H25l-1-190h30c1 12-1 29 2 39 6-27 23-49 58-41v29" id="L"/><path fill="#3a414a" d="M24-231v-30h32v30H24zM24 0v-190h32V0H24" id="M"/><path fill="#3a414a" d="M177-190C167-65 218 103 67 71c-23-6-38-20-44-43l32-5c15 47 100 32 89-28v-30C133-14 115 1 83 1 29 1 15-40 15-95c0-56 16-97 71-98 29-1 48 16 59 35 1-10 0-23 2-32h30zM94-22c36 0 50-32 50-73 0-42-14-75-50-75-39 0-46 34-46 75s6 73 46 73" id="N"/><path fill="#3a414a" d="M106-169C34-169 62-67 57 0H25v-261h32l-1 103c12-21 28-36 61-36 89 0 53 116 60 194h-32v-121c2-32-8-49-39-48" id="O"/><path fill="#3a414a" d="M68-38c1 34 0 65-14 84H32c9-13 17-26 17-46H33v-38h35" id="P"/><g id="e"><use transform="matrix(0.06172839506172839,0,0,0.06172839506172839,0,0)" xlink:href="#L"/><use transform="matrix(0.06172839506172839,0,0,0.06172839506172839,7.345679012345679,0)" xlink:href="#M"/><use transform="matrix(0.06172839506172839,0,0,0.06172839506172839,12.222222222222221,0)" xlink:href="#N"/><use transform="matrix(0.06172839506172839,0,0,0.06172839506172839,24.5679012345679,0)" xlink:href="#O"/><use transform="matrix(0.06172839506172839,0,0,0.06172839506172839,36.913580246913575,0)" xlink:href="#G"/><use transform="matrix(0.06172839506172839,0,0,0.06172839506172839,43.08641975308642,0)" xlink:href="#H"/><use transform="matrix(0.06172839506172839,0,0,0.06172839506172839,55.432098765432094,0)" xlink:href="#y"/><use transform="matrix(0.06172839506172839,0,0,0.06172839506172839,66.5432098765432,0)" xlink:href="#z"/><use transform="matrix(0.06172839506172839,0,0,0.06172839506172839,78.88888888888889,0)" xlink:href="#I"/><use transform="matrix(0.06172839506172839,0,0,0.06172839506172839,91.23456790123457,0)" xlink:href="#J"/><use transform="matrix(0.06172839506172839,0,0,0.06172839506172839,103.58024691358025,0)" xlink:href="#E"/><use transform="matrix(0.06172839506172839,0,0,0.06172839506172839,108.4567901234568,0)" xlink:href="#B"/><use transform="matrix(0.06172839506172839,0,0,0.06172839506172839,120.80246913580248,0)" xlink:href="#P"/></g><path fill="#3a414a" d="M155-56V0h-30v-56H8v-25l114-167h33v167h35v25h-35zm-30-156c-27 46-58 90-88 131h88v-131" id="Q"/><use transform="matrix(0.06172839506172839,0,0,0.06172839506172839,0,0)" xlink:href="#Q" id="f"/><path fill="#3a414a" d="M115-194c55 1 70 41 70 98S169 2 115 4C84 4 66-9 55-30l1 105H24l-1-265h31l2 30c10-21 28-34 59-34zm-8 174c40 0 45-34 45-75s-6-73-45-74c-42 0-51 32-51 76 0 43 10 73 51 73" id="R"/><g id="g"><use transform="matrix(0.06172839506172839,0,0,0.06172839506172839,0,0)" xlink:href="#R"/><use transform="matrix(0.06172839506172839,0,0,0.06172839506172839,12.345679012345679,0)" xlink:href="#E"/><use transform="matrix(0.06172839506172839,0,0,0.06172839506172839,17.22222222222222,0)" xlink:href="#z"/><use transform="matrix(0.06172839506172839,0,0,0.06172839506172839,29.5679012345679,0)" xlink:href="#G"/><use transform="matrix(0.06172839506172839,0,0,0.06172839506172839,35.74074074074074,0)" xlink:href="#B"/><use transform="matrix(0.06172839506172839,0,0,0.06172839506172839,48.08641975308642,0)" xlink:href="#A"/></g><g id="h"><use transform="matrix(0.06172839506172839,0,0,0.06172839506172839,0,0)" xlink:href="#E"/><use transform="matrix(0.06172839506172839,0,0,0.06172839506172839,4.876543209876543,0)" xlink:href="#B"/><use transform="matrix(0.06172839506172839,0,0,0.06172839506172839,17.22222222222222,0)" xlink:href="#F"/><use transform="matrix(0.06172839506172839,0,0,0.06172839506172839,23.39506172839506,0)" xlink:href="#G"/><use transform="matrix(0.06172839506172839,0,0,0.06172839506172839,29.5679012345679,0)" xlink:href="#H"/><use transform="matrix(0.06172839506172839,0,0,0.06172839506172839,41.913580246913575,0)" xlink:href="#y"/><use transform="matrix(0.06172839506172839,0,0,0.06172839506172839,53.02469135802468,0)" xlink:href="#z"/><use transform="matrix(0.06172839506172839,0,0,0.06172839506172839,65.37037037037037,0)" xlink:href="#I"/><use transform="matrix(0.06172839506172839,0,0,0.06172839506172839,77.71604938271605,0)" xlink:href="#J"/><use transform="matrix(0.06172839506172839,0,0,0.06172839506172839,90.06172839506173,0)" xlink:href="#E"/><use transform="matrix(0.06172839506172839,0,0,0.06172839506172839,94.93827160493828,0)" xlink:href="#B"/></g><path fill="#3a414a" d="M145-31C134-9 116 4 85 4 32 4 16-35 15-94c0-59 17-99 70-100 32-1 48 14 60 33 0-11-1-24 2-32h30l-1 268h-32zM93-21c41 0 51-33 51-76s-8-73-50-73c-40 0-46 35-46 75s5 74 45 74" id="S"/><path fill="#3a414a" d="M84 4C-5 8 30-112 23-190h32v120c0 31 7 50 39 49 72-2 45-101 50-169h31l1 190h-30c-1-10 1-25-2-33-11 22-28 36-60 37" id="T"/><path fill="#3a414a" d="M179-190L93 31C79 59 56 82 12 73V49c39 6 53-20 64-50L1-190h34L92-34l54-156h33" id="U"/><path fill="#3a414a" d="M26 75v-336h71v23H56V52h41v23H26" id="V"/><path fill="#3a414a" d="M3 75V52h41v-290H3v-23h71V75H3" id="W"/><g id="i"><use transform="matrix(0.06172839506172839,0,0,0.06172839506172839,0,0)" xlink:href="#S"/><use transform="matrix(0.06172839506172839,0,0,0.06172839506172839,12.345679012345679,0)" xlink:href="#T"/><use transform="matrix(0.06172839506172839,0,0,0.06172839506172839,24.691358024691358,0)" xlink:href="#B"/><use transform="matrix(0.06172839506172839,0,0,0.06172839506172839,37.03703703703704,0)" xlink:href="#L"/><use transform="matrix(0.06172839506172839,0,0,0.06172839506172839,44.382716049382715,0)" xlink:href="#U"/><use transform="matrix(0.06172839506172839,0,0,0.06172839506172839,55.49382716049382,0)" xlink:href="#V"/><use transform="matrix(0.06172839506172839,0,0,0.06172839506172839,61.666666666666664,0)" xlink:href="#C"/><use transform="matrix(0.06172839506172839,0,0,0.06172839506172839,74.01234567901234,0)" xlink:href="#W"/></g><path d="M80-196l47-18 7 23-49 13 32 44-20 13-27-46-27 45-21-12 33-44-49-13 8-23 47 19-2-53h23" id="X"/><use transform="matrix(0.1172839506172839,0,0,0.1172839506172839,0,0)" xlink:href="#X" id="j"/><use transform="matrix(0.1172839506172839,0,0,0.1172839506172839,0,0)" xlink:href="#X" id="k"/><path d="M32 76v-337h29V76H32" id="Y"/><use transform="matrix(0.1172839506172839,0,0,0.1172839506172839,0,0)" xlink:href="#Y" id="l"/><path fill="#3a414a" d="M101-251c68 0 85 55 85 127S166 4 100 4C33 4 14-52 14-124c0-73 17-127 87-127zm-1 229c47 0 54-49 54-102s-4-102-53-102c-51 0-55 48-55 102 0 53 5 102 54 102" id="Z"/><g id="m"><use transform="matrix(0.06172839506172839,0,0,0.06172839506172839,0,0)" xlink:href="#S"/><use transform="matrix(0.06172839506172839,0,0,0.06172839506172839,12.345679012345679,0)" xlink:href="#T"/><use transform="matrix(0.06172839506172839,0,0,0.06172839506172839,24.691358024691358,0)" xlink:href="#B"/><use transform="matrix(0.06172839506172839,0,0,0.06172839506172839,37.03703703703704,0)" xlink:href="#L"/><use transform="matrix(0.06172839506172839,0,0,0.06172839506172839,44.382716049382715,0)" xlink:href="#U"/><use transform="matrix(0.06172839506172839,0,0,0.06172839506172839,55.49382716049382,0)" xlink:href="#V"/><use transform="matrix(0.06172839506172839,0,0,0.06172839506172839,61.666666666666664,0)" xlink:href="#Z"/><use transform="matrix(0.06172839506172839,0,0,0.06172839506172839,74.01234567901234,0)" xlink:href="#W"/></g><g id="n"><use transform="matrix(0.06172839506172839,0,0,0.06172839506172839,0,0)" xlink:href="#L"/><use transform="matrix(0.06172839506172839,0,0,0.06172839506172839,7.345679012345679,0)" xlink:href="#M"/><use transform="matrix(0.06172839506172839,0,0,0.06172839506172839,12.222222222222221,0)" xlink:href="#N"/><use transform="matrix(0.06172839506172839,0,0,0.06172839506172839,24.5679012345679,0)" xlink:href="#O"/><use transform="matrix(0.06172839506172839,0,0,0.06172839506172839,36.913580246913575,0)" xlink:href="#G"/><use transform="matrix(0.06172839506172839,0,0,0.06172839506172839,43.08641975308642,0)" xlink:href="#H"/><use transform="matrix(0.06172839506172839,0,0,0.06172839506172839,55.432098765432094,0)" xlink:href="#y"/><use transform="matrix(0.06172839506172839,0,0,0.06172839506172839,66.5432098765432,0)" xlink:href="#z"/><use transform="matrix(0.06172839506172839,0,0,0.06172839506172839,78.88888888888889,0)" xlink:href="#I"/><use transform="matrix(0.06172839506172839,0,0,0.06172839506172839,91.23456790123457,0)" xlink:href="#J"/><use transform="matrix(0.06172839506172839,0,0,0.06172839506172839,103.58024691358025,0)" xlink:href="#E"/><use transform="matrix(0.06172839506172839,0,0,0.06172839506172839,108.4567901234568,0)" xlink:href="#B"/></g><path fill="#3a414a" d="M101-251c82-7 93 87 43 132L82-64C71-53 59-42 53-27h129V0H18c2-99 128-94 128-182 0-28-16-43-45-43s-46 15-49 41l-32-3c6-41 34-60 81-64" id="aa"/><g id="o"><use transform="matrix(0.06172839506172839,0,0,0.06172839506172839,0,0)" xlink:href="#aa"/><use transform="matrix(0.06172839506172839,0,0,0.06172839506172839,12.345679012345679,0)" xlink:href="#D"/></g><path fill="#3a414a" d="M18-27v-27l151-64-151-65v-27l175 74v36" id="ab"/><use transform="matrix(0.06172839506172839,0,0,0.06172839506172839,0,0)" xlink:href="#ab" id="p"/><g id="q"><use transform="matrix(0.06172839506172839,0,0,0.06172839506172839,0,0)" xlink:href="#L"/><use transform="matrix(0.06172839506172839,0,0,0.06172839506172839,7.345679012345679,0)" xlink:href="#M"/><use transform="matrix(0.06172839506172839,0,0,0.06172839506172839,12.222222222222221,0)" xlink:href="#N"/><use transform="matrix(0.06172839506172839,0,0,0.06172839506172839,24.5679012345679,0)" xlink:href="#O"/><use transform="matrix(0.06172839506172839,0,0,0.06172839506172839,36.913580246913575,0)" xlink:href="#G"/><use transform="matrix(0.06172839506172839,0,0,0.06172839506172839,43.08641975308642,0)" xlink:href="#H"/><use transform="matrix(0.06172839506172839,0,0,0.06172839506172839,55.432098765432094,0)" xlink:href="#y"/><use transform="matrix(0.06172839506172839,0,0,0.06172839506172839,66.5432098765432,0)" xlink:href="#z"/><use transform="matrix(0.06172839506172839,0,0,0.06172839506172839,78.88888888888889,0)" xlink:href="#I"/><use transform="matrix(0.06172839506172839,0,0,0.06172839506172839,91.23456790123457,0)" xlink:href="#y"/><use transform="matrix(0.06172839506172839,0,0,0.06172839506172839,102.34567901234568,0)" xlink:href="#E"/><use transform="matrix(0.06172839506172839,0,0,0.06172839506172839,107.22222222222223,0)" xlink:href="#B"/><use transform="matrix(0.06172839506172839,0,0,0.06172839506172839,119.56790123456791,0)" xlink:href="#P"/></g><use transform="matrix(0.06172839506172839,0,0,0.06172839506172839,0,0)" xlink:href="#Z" id="r"/><path fill="#3a414a" d="M126-127c33 6 58 20 58 59 0 88-139 92-164 29-3-8-5-16-6-25l32-3c6 27 21 44 54 44 32 0 52-15 52-46 0-38-36-46-79-43v-28c39 1 72-4 72-42 0-27-17-43-46-43-28 0-47 15-49 41l-32-3c6-42 35-63 81-64 48-1 79 21 79 65 0 36-21 52-52 59" id="ac"/><g id="s"><use transform="matrix(0.06172839506172839,0,0,0.06172839506172839,0,0)" xlink:href="#ac"/><use transform="matrix(0.06172839506172839,0,0,0.06172839506172839,12.345679012345679,0)" xlink:href="#D"/></g><path fill="#3a414a" d="M18-150v-26h174v26H18zm0 90v-26h174v26H18" id="ad"/><use transform="matrix(0.06172839506172839,0,0,0.06172839506172839,0,0)" xlink:href="#ad" id="t"/><path fill="#3a414a" d="M16-82v-28h88v28H16" id="ae"/><g id="u"><use transform="matrix(0.06172839506172839,0,0,0.06172839506172839,0,0)" xlink:href="#ae"/><use transform="matrix(0.06172839506172839,0,0,0.06172839506172839,7.345679012345679,0)" xlink:href="#C"/><use transform="matrix(0.06172839506172839,0,0,0.06172839506172839,19.691358024691358,0)" xlink:href="#P"/></g><g id="v"><use transform="matrix(0.06172839506172839,0,0,0.06172839506172839,0,0)" xlink:href="#L"/><use transform="matrix(0.06172839506172839,0,0,0.06172839506172839,7.345679012345679,0)" xlink:href="#M"/><use transform="matrix(0.06172839506172839,0,0,0.06172839506172839,12.222222222222221,0)" xlink:href="#N"/><use transform="matrix(0.06172839506172839,0,0,0.06172839506172839,24.5679012345679,0)" xlink:href="#O"/><use transform="matrix(0.06172839506172839,0,0,0.06172839506172839,36.913580246913575,0)" xlink:href="#G"/><use transform="matrix(0.06172839506172839,0,0,0.06172839506172839,43.08641975308642,0)" xlink:href="#H"/><use transform="matrix(0.06172839506172839,0,0,0.06172839506172839,55.432098765432094,0)" xlink:href="#y"/><use transform="matrix(0.06172839506172839,0,0,0.06172839506172839,66.5432098765432,0)" xlink:href="#z"/><use transform="matrix(0.06172839506172839,0,0,0.06172839506172839,78.88888888888889,0)" xlink:href="#I"/><use transform="matrix(0.06172839506172839,0,0,0.06172839506172839,91.23456790123457,0)" xlink:href="#J"/><use transform="matrix(0.06172839506172839,0,0,0.06172839506172839,103.58024691358025,0)" xlink:href="#E"/><use transform="matrix(0.06172839506172839,0,0,0.06172839506172839,108.4567901234568,0)" xlink:href="#B"/></g><path fill="#3a414a" d="M63-70H37l-4-178h34zM33 0v-35h34V0H33" id="af"/><g id="w"><use transform="matrix(0.06172839506172839,0,0,0.06172839506172839,0,0)" xlink:href="#af"/><use transform="matrix(0.06172839506172839,0,0,0.06172839506172839,6.172839506172839,0)" xlink:href="#ad"/></g><g id="x"><use transform="matrix(0.06172839506172839,0,0,0.06172839506172839,0,0)" xlink:href="#ae"/><use transform="matrix(0.06172839506172839,0,0,0.06172839506172839,7.345679012345679,0)" xlink:href="#C"/></g></defs></g></svg>