<svg xmlns="http://www.w3.org/2000/svg" xmlns:xlink="http://www.w3.org/1999/xlink" xmlns:lucid="lucid" width="1340" height="860"><g transform="translate(140 -240)" lucid:page-tab-id="0_0"><path d="M176.44 281.06H480v62.88H176.44z" fill="none"/><use xlink:href="#a" transform="matrix(1,0,0,1,176.43999999999983,281.05555555555566) translate(30.54938271604938 35.94444444444444)"/><use xlink:href="#b" transform="matrix(1,0,0,1,176.43999999999983,281.05555555555566) translate(92.27777777777777 35.94444444444444)"/><use xlink:href="#c" transform="matrix(1,0,0,1,176.43999999999983,281.05555555555566) translate(162.27777777777777 35.94444444444444)"/><use xlink:href="#d" transform="matrix(1,0,0,1,176.43999999999983,281.05555555555566) translate(196.4753086419753 35.94444444444444)"/><use xlink:href="#e" transform="matrix(1,0,0,1,176.43999999999983,281.05555555555566) translate(240.48765432098764 35.94444444444444)"/><path d="M-100 930h240v60h-240z" fill="none"/><use xlink:href="#f" transform="matrix(1,0,0,1,-100,930) translate(67.00617283950618 34.44444444444444)"/><use xlink:href="#g" transform="matrix(1,0,0,1,-100,930) translate(121.26543209876544 34.44444444444444)"/><path d="M740 310c0 27.6-22.4 50-50 50s-50-22.4-50-50 22.4-50 50-50 50 22.4 50 50z" stroke="#3a414a" fill="#dedeff"/><use xlink:href="#h" transform="matrix(1,0,0,1,645,265) translate(21.574074074074073 48.71527777777778)"/><path d="M500 490c0 27.6-22.4 50-50 50s-50-22.4-50-50 22.4-50 50-50 50 22.4 50 50z" stroke="#3a414a" fill="#dedeff"/><use xlink:href="#i" transform="matrix(1,0,0,1,405,445) translate(38.82716049382716 48.71527777777778)"/><path d="M400 639c0 27.6-22.4 50-50 50s-50-22.4-50-50 22.4-50 50-50 50 22.4 50 50z" stroke="#3a414a" fill="#dedeff"/><use xlink:href="#j" transform="matrix(1,0,0,1,305,594) translate(38.82716049382716 48.71527777777778)"/><path d="M500 790c0 27.6-22.4 50-50 50s-50-22.4-50-50 22.4-50 50-50 50 22.4 50 50z" stroke="#3a414a" fill="#dedeff"/><use xlink:href="#k" transform="matrix(1,0,0,1,405,745) translate(39.44444444444444 48.71527777777778)"/><path d="M660 490c0 27.6-22.4 50-50 50s-50-22.4-50-50 22.4-50 50-50 50 22.4 50 50z" stroke="#3a414a" fill="#dedeff"/><use xlink:href="#l" transform="matrix(1,0,0,1,565,445) translate(41.91358024691358 48.71527777777778)"/><path d="M820 490c0 27.6-22.4 50-50 50s-50-22.4-50-50 22.4-50 50-50 50 22.4 50 50z" stroke="#3a414a" fill="#fcfcca"/><use xlink:href="#m" transform="matrix(1,0,0,1,725,445) translate(42.56172839506173 48.71527777777778)"/><path d="M980 490c0 27.6-22.4 50-50 50s-50-22.4-50-50 22.4-50 50-50 50 22.4 50 50z" stroke="#3a414a" fill="#dedeff"/><use xlink:href="#k" transform="matrix(1,0,0,1,885,445) translate(39.44444444444444 48.71527777777778)"/><path d="M390 886a6 6 0 0 1 6-6h108a6 6 0 0 1 6 6v19.67a6 6 0 0 1-6 6H396a6 6 0 0 1-6-6z" stroke="#3a414a" fill="#fff"/><use xlink:href="#n" transform="matrix(1,0,0,1,395,885) translate(5.709876543209873 19.15277777777778)"/><use xlink:href="#o" transform="matrix(1,0,0,1,395,885) translate(66.08024691358025 19.15277777777778)"/><path d="M550 586a6 6 0 0 1 6-6h108a6 6 0 0 1 6 6v19.67a6 6 0 0 1-6 6H556a6 6 0 0 1-6-6z" stroke="#3a414a" fill="#fff"/><use xlink:href="#n" transform="matrix(1,0,0,1,555,585) translate(5.709876543209873 19.15277777777778)"/><use xlink:href="#o" transform="matrix(1,0,0,1,555,585) translate(66.08024691358025 19.15277777777778)"/><path d="M870 586a6 6 0 0 1 6-6h108a6 6 0 0 1 6 6v19.67a6 6 0 0 1-6 6H876a6 6 0 0 1-6-6z" stroke="#3a414a" fill="#fff"/><use xlink:href="#n" transform="matrix(1,0,0,1,875,585) translate(5.709876543209873 19.15277777777778)"/><use xlink:href="#o" transform="matrix(1,0,0,1,875,585) translate(66.08024691358025 19.15277777777778)"/><path d="M820 639c0 27.6-22.4 50-50 50s-50-22.4-50-50 22.4-50 50-50 50 22.4 50 50z" stroke="#3a414a" fill="#fcfcca"/><use xlink:href="#p" transform="matrix(1,0,0,1,725,594) translate(39.44444444444444 48.71527777777778)"/><path d="M710 726a6 6 0 0 1 6-6h108a6 6 0 0 1 6 6v19.67a6 6 0 0 1-6 6H716a6 6 0 0 1-6-6z" stroke="#3a414a" fill="#fff"/><use xlink:href="#n" transform="matrix(1,0,0,1,715,725) translate(5.709876543209873 19.15277777777778)"/><use xlink:href="#o" transform="matrix(1,0,0,1,715,725) translate(66.08024691358025 19.15277777777778)"/><path d="M610 579.04V541" stroke="#3a414a" fill="none"/><path d="M610.5 579.54h-1v-.52h1zM610 540.5l.5-.02v.53h-1v-.52z" stroke="#3a414a" stroke-width=".05" fill="#3a414a"/><path d="M930 579.04V541" stroke="#3a414a" fill="none"/><path d="M930.5 579.54h-1v-.52h1zM930 540.5l.5-.02v.53h-1v-.52z" stroke="#3a414a" stroke-width=".05" fill="#3a414a"/><path d="M770 719.04V690" stroke="#3a414a" fill="none"/><path d="M770.5 719.54h-1v-.52h1zM770 689.5l.5-.02v.53h-1v-.52z" stroke="#3a414a" stroke-width=".05" fill="#3a414a"/><path d="M450 879.04V841" stroke="#3a414a" fill="none"/><path d="M450.5 879.54h-1v-.52h1zM450 840.5l.5-.02v.53h-1v-.52z" stroke="#3a414a" stroke-width=".05" fill="#3a414a"/><path d="M690.35 360.85l67.1 67.1" stroke="#3a414a" fill="none"/><path d="M690 360.5l.68-.02.04.03-.7.72-.76-.76z" stroke="#3a414a" stroke-width=".05" fill="#3a414a"/><path d="M767.9 438.4l-13.38-6.82 6.56-6.56z" stroke="#3a414a" fill="#3a414a"/><path d="M770 541v31.12" stroke="#3a414a" fill="none"/><path d="M770 540.5l.5-.02v.53h-1v-.52z" stroke="#3a414a" stroke-width=".05" fill="#3a414a"/><path d="M770 586.88l-4.64-14.26h9.28z" stroke="#3a414a" fill="#3a414a"/><path d="M690.47 360.66l223.97 73.72" stroke="#3a414a" fill="none"/><path d="M690 360.5l.55-.02-.22.66-2.2-.73z" stroke="#3a414a" stroke-width=".05" fill="#3a414a"/><path d="M928.46 439l-15-.06 2.9-8.8z" stroke="#3a414a" fill="#3a414a"/><path d="M689.65 360.85l-67.1 67.1" stroke="#3a414a" fill="none"/><path d="M690 360.5l.73-.03-.74.75-.72-.7.05-.05z" stroke="#3a414a" stroke-width=".05" fill="#3a414a"/><path d="M612.1 438.4l6.8-13.36 6.56 6.55z" stroke="#3a414a" fill="#3a414a"/><path d="M689.53 360.66l-223.97 73.72" stroke="#3a414a" fill="none"/><path d="M689.67 361.14l-.22-.67.55.03 1.8-.06z" stroke="#3a414a" stroke-width=".05" fill="#3a414a"/><path d="M451.54 439l12.1-8.87 2.9 8.8z" stroke="#3a414a" fill="#3a414a"/><path d="M449.55 540.72l-84.78 40.7" stroke="#3a414a" fill="none"/><path d="M449.75 541.17l-.33-.7.58.03 1.25-.04z" stroke="#3a414a" stroke-width=".05" fill="#3a414a"/><path d="M351.46 587.8l10.85-10.35 4.03 8.36z" stroke="#3a414a" fill="#3a414a"/><path d="M378.15 681.5l34.93 52.76" stroke="#3a414a" fill="none"/><path d="M378.57 681.23l-.83.56-.28-.43.82-.58z" stroke="#3a414a" stroke-width=".05" fill="#3a414a"/><path d="M421.24 746.57l-11.74-9.34 7.73-5.1z" stroke="#3a414a" fill="#3a414a"/><path d="M480 312.25a6 6 0 0 1 6-6h101.4a3.12 3.12 0 0 0 3.13-3.13 1.2 1.2 0 0 1 2.1-.8l5.14 5.72a6.67 6.67 0 0 1 0 8.92l-5.15 5.72a1.2 1.2 0 0 1-2.1-.8 3.12 3.12 0 0 0-3.1-3.13H486a6 6 0 0 1-6-6z" stroke="#3a414a" fill="#282c33"/><path d="M140 940h80v40h-80zM220 940h80v40h-80zM300 940h80v40h-80zM380 940h80v40h-80zM460 940h80v40h-80zM540 940h80v40h-80zM620 940h80v40h-80zM700 940h80v40h-80zM780 940h80v40h-80zM860 940h80v40h-80zM940 940h80v40h-80z" fill="#f2f3f5"/><path d="M1020 940h80v40h-80zM1100 940h80v40h-80z" fill="#fcfcca"/><path d="M140 940v40M220 940v40M300 940v40M380 940v40M460 940v40M540 940v40M620 940v40M700 940v40M780 940v40M860 940v40M940 940v40M1020 940v40M1100 940v40M1180 940v40M140 940h80M140 980h80M220 940h80M220 980h80M300 940h80M300 980h80M380 940h80M380 980h80M460 940h80M460 980h80M540 940h80M540 980h80M620 940h80M620 980h80M700 940h80M700 980h80M780 940h80M780 980h80M860 940h80M860 980h80M940 940h80M940 980h80M1020 940h80M1020 980h80M1100 940h80M1100 980h80" stroke="#3a414a" fill="none"/><use xlink:href="#q" transform="matrix(1,0,0,1,145,945) translate(1.1111111111111143 19.444444444444443)"/><use xlink:href="#r" transform="matrix(1,0,0,1,225,945) translate(28.82716049382716 19.444444444444443)"/><use xlink:href="#s" transform="matrix(1,0,0,1,305,945) translate(28.82716049382716 19.444444444444443)"/><use xlink:href="#t" transform="matrix(1,0,0,1,385,945) translate(29.444444444444443 19.444444444444443)"/><use xlink:href="#u" transform="matrix(1,0,0,1,465,945) translate(28.82716049382716 19.444444444444443)"/><use xlink:href="#v" transform="matrix(1,0,0,1,545,945) translate(28.82716049382716 19.444444444444443)"/><use xlink:href="#w" transform="matrix(1,0,0,1,625,945) translate(31.91358024691358 19.444444444444443)"/><use xlink:href="#x" transform="matrix(1,0,0,1,705,945) translate(28.82716049382716 19.444444444444443)"/><use xlink:href="#y" transform="matrix(1,0,0,1,785,945) translate(28.82716049382716 19.444444444444443)"/><use xlink:href="#z" transform="matrix(1,0,0,1,865,945) translate(32.56172839506173 19.444444444444443)"/><use xlink:href="#A" transform="matrix(1,0,0,1,945,945) translate(32.56172839506173 19.444444444444443)"/><use xlink:href="#B" transform="matrix(1,0,0,1,1025,945) translate(29.444444444444443 19.444444444444443)"/><use xlink:href="#C" transform="matrix(1,0,0,1,1105,945) translate(32.56172839506173 19.444444444444443)"/><path d="M-120 1020h240v60h-240z" fill="none"/><use xlink:href="#D" transform="matrix(1,0,0,1,-120,1020) translate(54.074074074074076 34.44444444444444)"/><use xlink:href="#g" transform="matrix(1,0,0,1,-120,1020) translate(134.19753086419752 34.44444444444444)"/><path d="M140 1030h80v40h-80zM220 1030h80v40h-80z" fill="#fcfcca"/><path d="M300 1030h80v40h-80zM380 1030h80v40h-80zM460 1030h80v40h-80zM540 1030h80v40h-80zM620 1030h80v40h-80zM700 1030h80v40h-80zM780 1030h80v40h-80zM860 1030h80v40h-80zM940 1030h80v40h-80zM1020 1030h80v40h-80zM1100 1030h80v40h-80z" fill="#f2f3f5"/><path d="M140 1030v40M220 1030v40M300 1030v40M380 1030v40M460 1030v40M540 1030v40M620 1030v40M700 1030v40M780 1030v40M860 1030v40M940 1030v40M1020 1030v40M1100 1030v40M1180 1030v40M140 1030h80M140 1070h80M220 1030h80M220 1070h80M300 1030h80M300 1070h80M380 1030h80M380 1070h80M460 1030h80M460 1070h80M540 1030h80M540 1070h80M620 1030h80M620 1070h80M700 1030h80M700 1070h80M780 1030h80M780 1070h80M860 1030h80M860 1070h80M940 1030h80M940 1070h80M1020 1030h80M1020 1070h80M1100 1030h80M1100 1070h80" stroke="#3a414a" fill="none"/><use xlink:href="#C" transform="matrix(1,0,0,1,145,1035) translate(32.56172839506173 19.444444444444443)"/><use xlink:href="#B" transform="matrix(1,0,0,1,225,1035) translate(29.444444444444443 19.444444444444443)"/><use xlink:href="#A" transform="matrix(1,0,0,1,305,1035) translate(32.56172839506173 19.444444444444443)"/><use xlink:href="#z" transform="matrix(1,0,0,1,385,1035) translate(32.56172839506173 19.444444444444443)"/><g><use xlink:href="#y" transform="matrix(1,0,0,1,465,1035) translate(28.82716049382716 19.444444444444443)"/></g><g><use xlink:href="#x" transform="matrix(1,0,0,1,545,1035) translate(28.82716049382716 19.444444444444443)"/></g><g><use xlink:href="#w" transform="matrix(1,0,0,1,625,1035) translate(31.91358024691358 19.444444444444443)"/></g><g><use xlink:href="#v" transform="matrix(1,0,0,1,705,1035) translate(28.82716049382716 19.444444444444443)"/></g><g><use xlink:href="#u" transform="matrix(1,0,0,1,785,1035) translate(28.82716049382716 19.444444444444443)"/></g><g><use xlink:href="#t" transform="matrix(1,0,0,1,865,1035) translate(29.444444444444443 19.444444444444443)"/></g><g><use xlink:href="#s" transform="matrix(1,0,0,1,945,1035) translate(28.82716049382716 19.444444444444443)"/></g><g><use xlink:href="#r" transform="matrix(1,0,0,1,1025,1035) translate(28.82716049382716 19.444444444444443)"/></g><g><use xlink:href="#q" transform="matrix(1,0,0,1,1105,1035) translate(1.1111111111111143 19.444444444444443)"/></g><defs><path fill="#3a414a" d="M33 0v-248h34V0H33" id="E"/><path fill="#3a414a" d="M117-194c89-4 53 116 60 194h-32v-121c0-31-8-49-39-48C34-167 62-67 57 0H25l-1-190h30c1 10-1 24 2 32 11-22 29-35 61-36" id="F"/><path fill="#3a414a" d="M115-194c55 1 70 41 70 98S169 2 115 4C84 4 66-9 55-30l1 105H24l-1-265h31l2 30c10-21 28-34 59-34zm-8 174c40 0 45-34 45-75s-6-73-45-74c-42 0-51 32-51 76 0 43 10 73 51 73" id="G"/><path fill="#3a414a" d="M84 4C-5 8 30-112 23-190h32v120c0 31 7 50 39 49 72-2 45-101 50-169h31l1 190h-30c-1-10 1-25-2-33-11 22-28 36-60 37" id="H"/><path fill="#3a414a" d="M59-47c-2 24 18 29 38 22v24C64 9 27 4 27-40v-127H5v-23h24l9-43h21v43h35v23H59v120" id="I"/><path fill="#3a414a" d="M33-154v-36h34v36H33zM33 0v-36h34V0H33" id="J"/><g id="a"><use transform="matrix(0.06172839506172839,0,0,0.06172839506172839,0,0)" xlink:href="#E"/><use transform="matrix(0.06172839506172839,0,0,0.06172839506172839,6.172839506172839,0)" xlink:href="#F"/><use transform="matrix(0.06172839506172839,0,0,0.06172839506172839,18.51851851851852,0)" xlink:href="#G"/><use transform="matrix(0.06172839506172839,0,0,0.06172839506172839,30.864197530864196,0)" xlink:href="#H"/><use transform="matrix(0.06172839506172839,0,0,0.06172839506172839,43.20987654320987,0)" xlink:href="#I"/><use transform="matrix(0.06172839506172839,0,0,0.06172839506172839,49.382716049382715,0)" xlink:href="#J"/></g><path fill="#3a414a" d="M26 75v-336h71v23H56V52h41v23H26" id="K"/><path fill="#3a414a" d="M109-170H84l-4-78h32zm-65 0H19l-4-78h33" id="L"/><path fill="#3a414a" d="M96-169c-40 0-48 33-48 73s9 75 48 75c24 0 41-14 43-38l32 2c-6 37-31 61-74 61-59 0-76-41-82-99-10-93 101-131 147-64 4 7 5 14 7 22l-32 3c-4-21-16-35-41-35" id="M"/><path fill="#3a414a" d="M85-194c31 0 48 13 60 33l-1-100h32l1 261h-30c-2-10 0-23-3-31C134-8 116 4 85 4 32 4 16-35 15-94c0-66 23-100 70-100zm9 24c-40 0-46 34-46 75 0 40 6 74 45 74 42 0 51-32 51-76 0-42-9-74-50-73" id="N"/><path fill="#3a414a" d="M100-194c63 0 86 42 84 106H49c0 40 14 67 53 68 26 1 43-12 49-29l28 8c-11 28-37 45-77 45C44 4 14-33 15-96c1-61 26-98 85-98zm52 81c6-60-76-77-97-28-3 7-6 17-6 28h103" id="O"/><path fill="#3a414a" d="M68-38c1 34 0 65-14 84H32c9-13 17-26 17-46H33v-38h35" id="P"/><g id="b"><use transform="matrix(0.06172839506172839,0,0,0.06172839506172839,0,0)" xlink:href="#K"/><use transform="matrix(0.06172839506172839,0,0,0.06172839506172839,6.172839506172839,0)" xlink:href="#L"/><use transform="matrix(0.06172839506172839,0,0,0.06172839506172839,14.012345679012345,0)" xlink:href="#M"/><use transform="matrix(0.06172839506172839,0,0,0.06172839506172839,25.123456790123456,0)" xlink:href="#N"/><use transform="matrix(0.06172839506172839,0,0,0.06172839506172839,37.46913580246913,0)" xlink:href="#O"/><use transform="matrix(0.06172839506172839,0,0,0.06172839506172839,49.81481481481481,0)" xlink:href="#L"/><use transform="matrix(0.06172839506172839,0,0,0.06172839506172839,57.654320987654316,0)" xlink:href="#P"/></g><path fill="#3a414a" d="M101-234c-31-9-42 10-38 44h38v23H63V0H32v-167H5v-23h27c-7-52 17-82 69-68v24" id="Q"/><g id="c"><use transform="matrix(0.06172839506172839,0,0,0.06172839506172839,0,0)" xlink:href="#L"/><use transform="matrix(0.06172839506172839,0,0,0.06172839506172839,7.8395061728395055,0)" xlink:href="#Q"/><use transform="matrix(0.06172839506172839,0,0,0.06172839506172839,14.012345679012345,0)" xlink:href="#L"/><use transform="matrix(0.06172839506172839,0,0,0.06172839506172839,21.85185185185185,0)" xlink:href="#P"/></g><path fill="#3a414a" d="M143 0L79-87 56-68V0H24v-261h32v163l83-92h37l-77 82L181 0h-38" id="R"/><path fill="#3a414a" d="M24 0v-261h32V0H24" id="S"/><g id="d"><use transform="matrix(0.06172839506172839,0,0,0.06172839506172839,0,0)" xlink:href="#L"/><use transform="matrix(0.06172839506172839,0,0,0.06172839506172839,7.8395061728395055,0)" xlink:href="#R"/><use transform="matrix(0.06172839506172839,0,0,0.06172839506172839,18.950617283950617,0)" xlink:href="#S"/><use transform="matrix(0.06172839506172839,0,0,0.06172839506172839,23.827160493827158,0)" xlink:href="#L"/><use transform="matrix(0.06172839506172839,0,0,0.06172839506172839,31.666666666666664,0)" xlink:href="#P"/></g><path fill="#3a414a" d="M3 75V52h41v-290H3v-23h71V75H3" id="T"/><g id="e"><use transform="matrix(0.06172839506172839,0,0,0.06172839506172839,0,0)" xlink:href="#L"/><use transform="matrix(0.06172839506172839,0,0,0.06172839506172839,7.8395061728395055,0)" xlink:href="#M"/><use transform="matrix(0.06172839506172839,0,0,0.06172839506172839,18.950617283950617,0)" xlink:href="#L"/><use transform="matrix(0.06172839506172839,0,0,0.06172839506172839,26.790123456790123,0)" xlink:href="#T"/></g><path fill="#3a414a" d="M24-231v-30h32v30H24zM24 0v-190h32V0H24" id="U"/><g id="f"><use transform="matrix(0.06172839506172839,0,0,0.06172839506172839,0,0)" xlink:href="#U"/><use transform="matrix(0.06172839506172839,0,0,0.06172839506172839,4.876543209876543,0)" xlink:href="#F"/><use transform="matrix(0.06172839506172839,0,0,0.06172839506172839,17.22222222222222,0)" xlink:href="#G"/><use transform="matrix(0.06172839506172839,0,0,0.06172839506172839,29.5679012345679,0)" xlink:href="#H"/><use transform="matrix(0.06172839506172839,0,0,0.06172839506172839,41.913580246913575,0)" xlink:href="#I"/></g><path fill="#3a414a" d="M100-194c62-1 85 37 85 99 1 63-27 99-86 99S16-35 15-95c0-66 28-99 85-99zM99-20c44 1 53-31 53-75 0-43-8-75-51-75s-53 32-53 75 10 74 51 75" id="V"/><path fill="#3a414a" d="M114-163C36-179 61-72 57 0H25l-1-190h30c1 12-1 29 2 39 6-27 23-49 58-41v29" id="W"/><g id="g"><use transform="matrix(0.06172839506172839,0,0,0.06172839506172839,0,0)" xlink:href="#V"/><use transform="matrix(0.06172839506172839,0,0,0.06172839506172839,12.345679012345679,0)" xlink:href="#W"/><use transform="matrix(0.06172839506172839,0,0,0.06172839506172839,19.691358024691358,0)" xlink:href="#N"/><use transform="matrix(0.06172839506172839,0,0,0.06172839506172839,32.03703703703704,0)" xlink:href="#O"/><use transform="matrix(0.06172839506172839,0,0,0.06172839506172839,44.382716049382715,0)" xlink:href="#W"/></g><path fill="#3a414a" d="M233-177c-1 41-23 64-60 70L243 0h-38l-65-103H63V0H30v-248c88 3 205-21 203 71zM63-129c60-2 137 13 137-47 0-61-80-42-137-45v92" id="X"/><g id="h"><use transform="matrix(0.06172839506172839,0,0,0.06172839506172839,0,0)" xlink:href="#X"/><use transform="matrix(0.06172839506172839,0,0,0.06172839506172839,15.987654320987653,0)" xlink:href="#V"/><use transform="matrix(0.06172839506172839,0,0,0.06172839506172839,28.333333333333332,0)" xlink:href="#V"/><use transform="matrix(0.06172839506172839,0,0,0.06172839506172839,40.67901234567901,0)" xlink:href="#I"/></g><use transform="matrix(0.06172839506172839,0,0,0.06172839506172839,0,0)" xlink:href="#O" id="i"/><use transform="matrix(0.06172839506172839,0,0,0.06172839506172839,0,0)" xlink:href="#N" id="j"/><use transform="matrix(0.06172839506172839,0,0,0.06172839506172839,0,0)" xlink:href="#M" id="k"/><use transform="matrix(0.06172839506172839,0,0,0.06172839506172839,0,0)" xlink:href="#Q" id="l"/><use transform="matrix(0.06172839506172839,0,0,0.06172839506172839,0,0)" xlink:href="#S" id="m"/><path fill="#3a414a" d="M206 0h-36l-40-164L89 0H53L-1-190h32L70-26l43-164h34l41 164 42-164h31" id="Y"/><g id="n"><use transform="matrix(0.06172839506172839,0,0,0.06172839506172839,0,0)" xlink:href="#Y"/><use transform="matrix(0.06172839506172839,0,0,0.06172839506172839,15.987654320987653,0)" xlink:href="#V"/><use transform="matrix(0.06172839506172839,0,0,0.06172839506172839,28.333333333333332,0)" xlink:href="#W"/><use transform="matrix(0.06172839506172839,0,0,0.06172839506172839,35.67901234567901,0)" xlink:href="#N"/><use transform="matrix(0.06172839506172839,0,0,0.06172839506172839,48.02469135802469,0)" xlink:href="#J"/></g><g id="o"><use transform="matrix(0.06172839506172839,0,0,0.06172839506172839,0,0)" xlink:href="#I"/><use transform="matrix(0.06172839506172839,0,0,0.06172839506172839,6.172839506172839,0)" xlink:href="#W"/><use transform="matrix(0.06172839506172839,0,0,0.06172839506172839,13.518518518518519,0)" xlink:href="#H"/><use transform="matrix(0.06172839506172839,0,0,0.06172839506172839,25.864197530864196,0)" xlink:href="#O"/></g><use transform="matrix(0.06172839506172839,0,0,0.06172839506172839,0,0)" xlink:href="#R" id="p"/><path d="M135-143c-3-34-86-38-87 0 15 53 115 12 119 90S17 21 10-45l28-5c4 36 97 45 98 0-10-56-113-15-118-90-4-57 82-63 122-42 12 7 21 19 24 35" id="Z"/><path d="M59-47c-2 24 18 29 38 22v24C64 9 27 4 27-40v-127H5v-23h24l9-43h21v43h35v23H59v120" id="aa"/><path d="M114-163C36-179 61-72 57 0H25l-1-190h30c1 12-1 29 2 39 6-27 23-49 58-41v29" id="ab"/><path d="M100-194c63 0 86 42 84 106H49c0 40 14 67 53 68 26 1 43-12 49-29l28 8c-11 28-37 45-77 45C44 4 14-33 15-96c1-61 26-98 85-98zm52 81c6-60-76-77-97-28-3 7-6 17-6 28h103" id="ac"/><path d="M141-36C126-15 110 5 73 4 37 3 15-17 15-53c-1-64 63-63 125-63 3-35-9-54-41-54-24 1-41 7-42 31l-33-3c5-37 33-52 76-52 45 0 72 20 72 64v82c-1 20 7 32 28 27v20c-31 9-61-2-59-35zM48-53c0 20 12 33 32 33 41-3 63-29 60-74-43 2-92-5-92 41" id="ad"/><path d="M210-169c-67 3-38 105-44 169h-31v-121c0-29-5-50-35-48C34-165 62-65 56 0H25l-1-190h30c1 10-1 24 2 32 10-44 99-50 107 0 11-21 27-35 58-36 85-2 47 119 55 194h-31v-121c0-29-5-49-35-48" id="ae"/><g id="q"><use transform="matrix(0.06172839506172839,0,0,0.06172839506172839,0,0)" xlink:href="#Z"/><use transform="matrix(0.06172839506172839,0,0,0.06172839506172839,11.11111111111111,0)" xlink:href="#aa"/><use transform="matrix(0.06172839506172839,0,0,0.06172839506172839,17.28395061728395,0)" xlink:href="#ab"/><use transform="matrix(0.06172839506172839,0,0,0.06172839506172839,24.629629629629626,0)" xlink:href="#ac"/><use transform="matrix(0.06172839506172839,0,0,0.06172839506172839,36.9753086419753,0)" xlink:href="#ad"/><use transform="matrix(0.06172839506172839,0,0,0.06172839506172839,49.32098765432098,0)" xlink:href="#ae"/></g><use transform="matrix(0.06172839506172839,0,0,0.06172839506172839,0,0)" xlink:href="#ad" id="r"/><path d="M115-194c53 0 69 39 70 98 0 66-23 100-70 100C84 3 66-7 56-30L54 0H23l1-261h32v101c10-23 28-34 59-34zm-8 174c40 0 45-34 45-75 0-40-5-75-45-74-42 0-51 32-51 76 0 43 10 73 51 73" id="af"/><use transform="matrix(0.06172839506172839,0,0,0.06172839506172839,0,0)" xlink:href="#af" id="s"/><path d="M96-169c-40 0-48 33-48 73s9 75 48 75c24 0 41-14 43-38l32 2c-6 37-31 61-74 61-59 0-76-41-82-99-10-93 101-131 147-64 4 7 5 14 7 22l-32 3c-4-21-16-35-41-35" id="ag"/><use transform="matrix(0.06172839506172839,0,0,0.06172839506172839,0,0)" xlink:href="#ag" id="t"/><path d="M85-194c31 0 48 13 60 33l-1-100h32l1 261h-30c-2-10 0-23-3-31C134-8 116 4 85 4 32 4 16-35 15-94c0-66 23-100 70-100zm9 24c-40 0-46 34-46 75 0 40 6 74 45 74 42 0 51-32 51-76 0-42-9-74-50-73" id="ah"/><use transform="matrix(0.06172839506172839,0,0,0.06172839506172839,0,0)" xlink:href="#ah" id="u"/><use transform="matrix(0.06172839506172839,0,0,0.06172839506172839,0,0)" xlink:href="#ac" id="v"/><path d="M101-234c-31-9-42 10-38 44h38v23H63V0H32v-167H5v-23h27c-7-52 17-82 69-68v24" id="ai"/><use transform="matrix(0.06172839506172839,0,0,0.06172839506172839,0,0)" xlink:href="#ai" id="w"/><path d="M177-190C167-65 218 103 67 71c-23-6-38-20-44-43l32-5c15 47 100 32 89-28v-30C133-14 115 1 83 1 29 1 15-40 15-95c0-56 16-97 71-98 29-1 48 16 59 35 1-10 0-23 2-32h30zM94-22c36 0 50-32 50-73 0-42-14-75-50-75-39 0-46 34-46 75s6 73 46 73" id="aj"/><use transform="matrix(0.06172839506172839,0,0,0.06172839506172839,0,0)" xlink:href="#aj" id="x"/><path d="M106-169C34-169 62-67 57 0H25v-261h32l-1 103c12-21 28-36 61-36 89 0 53 116 60 194h-32v-121c2-32-8-49-39-48" id="ak"/><use transform="matrix(0.06172839506172839,0,0,0.06172839506172839,0,0)" xlink:href="#ak" id="y"/><path d="M24-231v-30h32v30H24zM24 0v-190h32V0H24" id="al"/><use transform="matrix(0.06172839506172839,0,0,0.06172839506172839,0,0)" xlink:href="#al" id="z"/><path d="M24-231v-30h32v30H24zM-9 49c24 4 33-6 33-30v-209h32V24c2 40-23 58-65 49V49" id="am"/><use transform="matrix(0.06172839506172839,0,0,0.06172839506172839,0,0)" xlink:href="#am" id="A"/><path d="M143 0L79-87 56-68V0H24v-261h32v163l83-92h37l-77 82L181 0h-38" id="an"/><use transform="matrix(0.06172839506172839,0,0,0.06172839506172839,0,0)" xlink:href="#an" id="B"/><path d="M24 0v-261h32V0H24" id="ao"/><use transform="matrix(0.06172839506172839,0,0,0.06172839506172839,0,0)" xlink:href="#ao" id="C"/><path fill="#3a414a" d="M108 0H70L1-190h34L89-25l56-165h34" id="ap"/><path fill="#3a414a" d="M135-143c-3-34-86-38-87 0 15 53 115 12 119 90S17 21 10-45l28-5c4 36 97 45 98 0-10-56-113-15-118-90-4-57 82-63 122-42 12 7 21 19 24 35" id="aq"/><g id="D"><use transform="matrix(0.06172839506172839,0,0,0.06172839506172839,0,0)" xlink:href="#W"/><use transform="matrix(0.06172839506172839,0,0,0.06172839506172839,7.345679012345679,0)" xlink:href="#O"/><use transform="matrix(0.06172839506172839,0,0,0.06172839506172839,19.691358024691358,0)" xlink:href="#ap"/><use transform="matrix(0.06172839506172839,0,0,0.06172839506172839,30.80246913580247,0)" xlink:href="#O"/><use transform="matrix(0.06172839506172839,0,0,0.06172839506172839,43.148148148148145,0)" xlink:href="#W"/><use transform="matrix(0.06172839506172839,0,0,0.06172839506172839,50.49382716049382,0)" xlink:href="#aq"/><use transform="matrix(0.06172839506172839,0,0,0.06172839506172839,61.60493827160494,0)" xlink:href="#O"/></g></defs></g></svg>