<svg xmlns="http://www.w3.org/2000/svg" xmlns:xlink="http://www.w3.org/1999/xlink" xmlns:lucid="lucid" width="800" height="410"><g transform="translate(-160 -180)" lucid:page-tab-id="0_0"><path d="M538.67 510h240v60h-240z" fill="none"/><use xlink:href="#a" transform="matrix(1,0,0,1,538.6666666666666,510) translate(94.07407407407408 34.44444444444444)"/><path d="M538.67 200h240v60h-240z" fill="none"/><use xlink:href="#b" transform="matrix(1,0,0,1,538.6666666666666,200) translate(104.5679012345679 34.44444444444444)"/><path d="M680 300h240v60H680z" fill="none"/><use xlink:href="#c" transform="matrix(1,0,0,1,680,300) translate(107.03703703703704 38.888888888888886)"/><path d="M180 226a6 6 0 0 1 6-6h28a6 6 0 0 1 6 6v268a6 6 0 0 1-6 6h-28a6 6 0 0 1-6-6z" stroke="#3a414a" fill="#fff"/><use xlink:href="#d" transform="matrix(1,0,0,1,185,225) translate(8.827160493827162 140.12152777777777)"/><path d="M480 326a6 6 0 0 1 6-6h28a6 6 0 0 1 6 6v168a6 6 0 0 1-6 6h-28a6 6 0 0 1-6-6z" stroke="#3a414a" fill="#54c45e"/><use xlink:href="#e" transform="matrix(1,0,0,1,485,325) translate(8.827160493827162 86.84027777777777)"/><path d="M300 366a6 6 0 0 1 6-6h28a6 6 0 0 1 6 6v128a6 6 0 0 1-6 6h-28a6 6 0 0 1-6-6z" stroke="#3a414a" fill="#ffdda6"/><use xlink:href="#f" transform="matrix(1,0,0,1,305,365) translate(8.827160493827162 70.59027777777777)"/><path d="M360 426a6 6 0 0 1 6-6h28a6 6 0 0 1 6 6v68a6 6 0 0 1-6 6h-28a6 6 0 0 1-6-6z" stroke="#3a414a" fill="#ffdda6"/><use xlink:href="#g" transform="matrix(1,0,0,1,365,425) translate(8.827160493827162 39.65277777777778)"/><path d="M420 466a6 6 0 0 1 6-6h28a6 6 0 0 1 6 6v28a6 6 0 0 1-6 6h-28a6 6 0 0 1-6-6z" stroke="#3a414a" fill="#ffdda6"/><use xlink:href="#h" transform="matrix(1,0,0,1,425,465) translate(8.827160493827162 19.65277777777778)"/><path d="M240 266a6 6 0 0 1 6-6h28a6 6 0 0 1 6 6v228a6 6 0 0 1-6 6h-28a6 6 0 0 1-6-6z" stroke="#3a414a" fill="#fff"/><use xlink:href="#i" transform="matrix(1,0,0,1,245,265) translate(8.827160493827162 118.84027777777777)"/><path d="M498.5 560a6 6 0 0 1-6-6v-16.75a3.75 3.75 0 0 0-3.75-3.75 1.44 1.44 0 0 1-.96-2.5l7.74-7a6.67 6.67 0 0 1 8.92 0l7.75 7a1.44 1.44 0 0 1-.95 2.5 3.75 3.75 0 0 0-3.75 3.75V554a6 6 0 0 1-6 6z" stroke="#3a414a" fill="#282c33"/><path d="M621.33 406a6 6 0 0 1 6-6h68a6 6 0 0 1 6 6v38a6 6 0 0 1-6 6h-68a6 6 0 0 1-6-6z" stroke="#3a414a" fill="#fff"/><use xlink:href="#i" transform="matrix(1,0,0,1,626.3333333333334,405) translate(28.82716049382716 25.27777777777778)"/><path d="M621.33 456a6 6 0 0 1 6-6h68a6 6 0 0 1 6 6v38a6 6 0 0 1-6 6h-68a6 6 0 0 1-6-6z" stroke="#3a414a" fill="#fff"/><use xlink:href="#d" transform="matrix(1,0,0,1,626.3333333333334,455) translate(28.82716049382716 25.27777777777778)"/><path d="M620 356a6 6 0 0 1 6-6h68a6 6 0 0 1 6 6v38a6 6 0 0 1-6 6h-68a6 6 0 0 1-6-6z" stroke="#3a414a" fill="#fff"/><use xlink:href="#f" transform="matrix(1,0,0,1,625,355) translate(28.82716049382716 25.27777777777778)"/><path d="M621.33 306a6 6 0 0 1 6-6h68a6 6 0 0 1 6 6v38a6 6 0 0 1-6 6h-68a6 6 0 0 1-6-6z" stroke="#3a414a" fill="#fff"/><use xlink:href="#g" transform="matrix(1,0,0,1,626.3333333333334,305) translate(28.82716049382716 25.27777777777778)"/><path d="M621.33 256a6 6 0 0 1 6-6h68a6 6 0 0 1 6 6v38a6 6 0 0 1-6 6h-68a6 6 0 0 1-6-6z" stroke="#3a414a" fill="#fff"/><use xlink:href="#h" transform="matrix(1,0,0,1,626.3333333333334,255) translate(28.82716049382716 25.27777777777778)"/><path d="M860 306a6 6 0 0 1 6-6h68a6 6 0 0 1 6 6v38a6 6 0 0 1-6 6h-68a6 6 0 0 1-6-6z" stroke="#3a414a" fill="#fff"/><use xlink:href="#e" transform="matrix(1,0,0,1,865,305) translate(28.82716049382716 25.27777777777778)"/><path d="M720 256a6 6 0 0 1 6-6h68a6 6 0 0 1 6 6v138a6 6 0 0 1-6 6h-68a6 6 0 0 1-6-6z" fill="none"/><path d="M720 400c5.52 0 10-4.48 10-10v-55c0-5.52 4.48-10 10-10-5.52 0-10-4.48-10-10v-55c0-5.52-4.48-10-10-10" stroke="#3a414a" fill="none"/><defs><path fill="#3a414a" d="M135-143c-3-34-86-38-87 0 15 53 115 12 119 90S17 21 10-45l28-5c4 36 97 45 98 0-10-56-113-15-118-90-4-57 82-63 122-42 12 7 21 19 24 35" id="j"/><path fill="#3a414a" d="M59-47c-2 24 18 29 38 22v24C64 9 27 4 27-40v-127H5v-23h24l9-43h21v43h35v23H59v120" id="k"/><path fill="#3a414a" d="M141-36C126-15 110 5 73 4 37 3 15-17 15-53c-1-64 63-63 125-63 3-35-9-54-41-54-24 1-41 7-42 31l-33-3c5-37 33-52 76-52 45 0 72 20 72 64v82c-1 20 7 32 28 27v20c-31 9-61-2-59-35zM48-53c0 20 12 33 32 33 41-3 63-29 60-74-43 2-92-5-92 41" id="l"/><path fill="#3a414a" d="M96-169c-40 0-48 33-48 73s9 75 48 75c24 0 41-14 43-38l32 2c-6 37-31 61-74 61-59 0-76-41-82-99-10-93 101-131 147-64 4 7 5 14 7 22l-32 3c-4-21-16-35-41-35" id="m"/><path fill="#3a414a" d="M143 0L79-87 56-68V0H24v-261h32v163l83-92h37l-77 82L181 0h-38" id="n"/><g id="a"><use transform="matrix(0.06172839506172839,0,0,0.06172839506172839,0,0)" xlink:href="#j"/><use transform="matrix(0.06172839506172839,0,0,0.06172839506172839,11.11111111111111,0)" xlink:href="#k"/><use transform="matrix(0.06172839506172839,0,0,0.06172839506172839,17.28395061728395,0)" xlink:href="#l"/><use transform="matrix(0.06172839506172839,0,0,0.06172839506172839,29.629629629629626,0)" xlink:href="#m"/><use transform="matrix(0.06172839506172839,0,0,0.06172839506172839,40.74074074074073,0)" xlink:href="#n"/></g><path fill="#3a414a" d="M100-194c62-1 85 37 85 99 1 63-27 99-86 99S16-35 15-95c0-66 28-99 85-99zM99-20c44 1 53-31 53-75 0-43-8-75-51-75s-53 32-53 75 10 74 51 75" id="o"/><path fill="#3a414a" d="M115-194c55 1 70 41 70 98S169 2 115 4C84 4 66-9 55-30l1 105H24l-1-265h31l2 30c10-21 28-34 59-34zm-8 174c40 0 45-34 45-75s-6-73-45-74c-42 0-51 32-51 76 0 43 10 73 51 73" id="p"/><g id="b"><use transform="matrix(0.06172839506172839,0,0,0.06172839506172839,0,0)" xlink:href="#k"/><use transform="matrix(0.06172839506172839,0,0,0.06172839506172839,6.172839506172839,0)" xlink:href="#o"/><use transform="matrix(0.06172839506172839,0,0,0.06172839506172839,18.51851851851852,0)" xlink:href="#p"/></g><path fill="#3a414a" d="M18-100v-36l175-74v27L42-118l151 64v27" id="q"/><use transform="matrix(0.12345679012345674,0,0,0.12345679012345674,0,0)" xlink:href="#q" id="c"/><path fill="#3a414a" d="M99-251c64 0 84 50 84 122C183-37 130 33 47-8c-14-7-20-23-25-40l30-5c6 39 69 39 84 7 9-19 16-44 16-74-10 22-31 35-62 35-49 0-73-33-73-83 0-54 28-83 82-83zm-1 141c31-1 51-18 51-49 0-36-14-67-51-67-34 0-49 23-49 58 0 34 15 58 49 58" id="r"/><use transform="matrix(0.06172839506172839,0,0,0.06172839506172839,0,0)" xlink:href="#r" id="d"/><path fill="#3a414a" d="M110-160c48 1 74 30 74 79 0 53-28 85-80 85-65 0-83-55-86-122-5-90 50-162 133-122 14 7 22 21 27 39l-31 6c-5-40-67-38-82-6-9 19-15 44-15 74 11-20 30-34 60-33zm-7 138c34 0 49-23 49-58s-16-56-50-56c-29 0-50 16-49 49 1 36 15 65 50 65" id="s"/><use transform="matrix(0.06172839506172839,0,0,0.06172839506172839,0,0)" xlink:href="#s" id="e"/><path fill="#3a414a" d="M155-56V0h-30v-56H8v-25l114-167h33v167h35v25h-35zm-30-156c-27 46-58 90-88 131h88v-131" id="t"/><use transform="matrix(0.06172839506172839,0,0,0.06172839506172839,0,0)" xlink:href="#t" id="f"/><path fill="#3a414a" d="M126-127c33 6 58 20 58 59 0 88-139 92-164 29-3-8-5-16-6-25l32-3c6 27 21 44 54 44 32 0 52-15 52-46 0-38-36-46-79-43v-28c39 1 72-4 72-42 0-27-17-43-46-43-28 0-47 15-49 41l-32-3c6-42 35-63 81-64 48-1 79 21 79 65 0 36-21 52-52 59" id="u"/><use transform="matrix(0.06172839506172839,0,0,0.06172839506172839,0,0)" xlink:href="#u" id="g"/><path fill="#3a414a" d="M101-251c82-7 93 87 43 132L82-64C71-53 59-42 53-27h129V0H18c2-99 128-94 128-182 0-28-16-43-45-43s-46 15-49 41l-32-3c6-41 34-60 81-64" id="v"/><use transform="matrix(0.06172839506172839,0,0,0.06172839506172839,0,0)" xlink:href="#v" id="h"/><path fill="#3a414a" d="M64 0c3-98 48-159 88-221H18v-27h164v26C143-157 98-101 97 0H64" id="w"/><use transform="matrix(0.06172839506172839,0,0,0.06172839506172839,0,0)" xlink:href="#w" id="i"/></defs></g></svg>